<?xml version="1.0" standalone="no"?>
<!DOCTYPE svg PUBLIC "-//W3C//DTD SVG 20010904//EN"
 "http://www.w3.org/TR/2001/REC-SVG-20010904/DTD/svg10.dtd">
<svg version="1.0" xmlns="http://www.w3.org/2000/svg"
 width="512.000000pt" height="512.000000pt" viewBox="0 0 512.000000 512.000000"
 preserveAspectRatio="xMidYMid meet">
<metadata>
Created by potrace 1.16, written by Peter Selinger 2001-2019
</metadata>
<g transform="translate(0.000000,512.000000) scale(0.100000,-0.100000)"
fill="#000000" stroke="none">
<path d="M2563 5109 c-33 -10 -63 -42 -63 -69 0 -9 -43 -65 -97 -125 -215
-245 -457 -562 -661 -867 -621 -930 -959 -1846 -928 -2513 16 -359 111 -635
302 -881 252 -324 736 -578 1218 -640 177 -22 455 -15 606 16 545 112 955 413
1189 871 344 675 193 1409 -464 2244 -388 494 -456 584 -556 734 -230 344
-345 654 -379 1016 -20 207 -51 247 -167 214z m-940 -2867 c36 -115 109 -256
180 -347 71 -93 167 -169 447 -358 339 -229 459 -338 532 -484 70 -142 16
-261 -176 -387 -230 -152 -385 -163 -606 -44 -114 62 -178 109 -251 185 -164
168 -297 443 -334 690 -21 137 -19 199 10 316 29 118 156 517 164 517 3 0 19
-40 34 -88z"/>
</g>
</svg>
