<?xml version="1.0" standalone="no"?>
<!DOCTYPE svg PUBLIC "-//W3C//DTD SVG 20010904//EN"
 "http://www.w3.org/TR/2001/REC-SVG-20010904/DTD/svg10.dtd">
<svg version="1.0" xmlns="http://www.w3.org/2000/svg"
 width="512.000000pt" height="512.000000pt" viewBox="0 0 512.000000 512.000000"
 preserveAspectRatio="xMidYMid meet">

<g transform="translate(0.000000,512.000000) scale(0.100000,-0.100000)"
fill="#000000" stroke="none">
<path d="M1890 4473 c-297 -29 -565 -139 -732 -301 -417 -402 -173 -988 509
-1225 466 -163 1026 -110 1357 127 77 55 184 166 221 230 120 206 111 442 -24
648 -211 321 -688 533 -1186 526 -60 -1 -126 -3 -145 -5z m462 -183 c141 -27
241 -60 364 -120 609 -295 601 -855 -14 -1080 -633 -231 -1494 75 -1583 562
-49 270 187 524 579 624 52 13 128 28 170 33 119 15 360 6 484 -19z"/>
<path d="M1506 3858 c-35 -134 71 -288 264 -381 245 -118 555 -136 790 -45
127 49 219 132 245 222 28 94 16 126 -24 66 -72 -106 -224 -177 -435 -201
-186 -22 -393 14 -563 96 -112 55 -201 133 -239 211 -14 30 -28 54 -29 54 -1
0 -5 -10 -9 -22z"/>
<path d="M4102 3249 c-417 -35 -860 -247 -1147 -551 -294 -311 -392 -683 -254
-961 69 -139 162 -228 324 -307 282 -138 637 -144 1032 -16 141 46 381 167
498 250 269 193 466 451 537 701 34 122 32 292 -6 400 -118 340 -493 524 -984
484z m353 -175 c163 -31 286 -95 379 -194 94 -102 133 -213 123 -355 -23 -350
-367 -725 -842 -918 -220 -89 -379 -121 -600 -120 -139 0 -173 4 -259 26 -300
79 -456 252 -456 506 0 105 18 180 70 289 68 143 166 265 303 380 373 314 872
463 1282 386z"/>
<path d="M4516 2682 c-26 -229 -309 -488 -651 -595 -230 -72 -466 -59 -600 33
-50 34 -55 27 -26 -35 99 -217 510 -247 876 -63 183 92 354 247 419 379 57
116 62 221 12 303 l-23 39 -7 -61z"/>
<path d="M637 2870 c-172 -29 -321 -103 -432 -215 -205 -204 -257 -488 -150
-812 161 -484 638 -933 1186 -1117 186 -62 291 -79 484 -80 186 0 277 15 407
70 265 111 428 359 428 652 0 657 -738 1382 -1527 1501 -82 12 -324 13 -396 1z
m514 -188 c319 -85 614 -255 850 -493 354 -356 487 -777 342 -1079 -37 -77
-150 -188 -233 -228 -414 -202 -1083 -7 -1540 448 -131 130 -219 251 -295 405
-73 147 -103 250 -111 380 -20 304 163 527 487 595 24 5 121 8 214 6 152 -3
183 -7 286 -34z"/>
<path d="M714 2368 c-91 -109 -92 -261 -1 -443 166 -334 606 -615 960 -615
144 0 249 43 314 128 49 64 44 76 -21 46 -147 -67 -375 -43 -602 65 -138 66
-242 138 -352 245 -187 181 -283 374 -269 543 2 35 3 63 2 63 -2 0 -16 -15
-31 -32z"/>
</g>
</svg>
