<?xml version="1.0" standalone="no"?>
<!DOCTYPE svg PUBLIC "-//W3C//DTD SVG 20010904//EN"
 "http://www.w3.org/TR/2001/REC-SVG-20010904/DTD/svg10.dtd">
<svg version="1.0" xmlns="http://www.w3.org/2000/svg"
 width="225.000000pt" height="225.000000pt" viewBox="0 0 225.000000 225.000000"
 preserveAspectRatio="xMidYMid meet">
<metadata>
Created by potrace 1.16, written by Peter Selinger 2001-2019
</metadata>
<g transform="translate(0.000000,225.000000) scale(0.100000,-0.100000)"
fill="#000000" stroke="none">
<path d="M109 1797 c-29 -16 -54 -40 -74 -72 l-30 -48 0 -552 0 -552 30 -48
c20 -32 45 -56 74 -72 l44 -23 836 0 c819 0 837 1 881 21 51 23 105 70 126
111 8 15 69 265 135 555 130 572 131 577 82 641 -49 65 5 62 -1076 62 l-984 0
-44 -23z m218 -75 c-30 -33 -44 -85 -143 -522 l-99 -435 -3 435 c-2 309 1 443
9 463 6 15 25 39 41 52 27 23 38 25 120 25 87 0 90 -1 75 -18z m1811 -2 c12
-11 24 -31 27 -43 7 -25 -216 -1022 -239 -1074 -8 -17 -32 -44 -52 -60 l-37
-28 -829 -3 -829 -2 -24 24 c-14 14 -25 36 -25 48 0 29 226 1023 241 1060 13
31 43 61 84 82 26 14 126 16 846 16 805 0 815 0 837 -20z"/>
<path d="M1081 1604 c-97 -21 -168 -60 -242 -133 -197 -197 -197 -495 0 -692
151 -151 367 -187 556 -95 89 44 143 90 194 167 109 163 109 385 0 548 -22 33
-59 77 -82 96 -59 51 -171 103 -247 115 -81 12 -99 12 -179 -6z m175 -75 c124
-23 247 -119 302 -236 24 -52 27 -69 27 -168 0 -99 -3 -116 -27 -168 -76 -163
-262 -265 -433 -239 -178 28 -317 165 -348 345 -40 237 148 462 399 476 11 0
47 -4 80 -10z"/>
<path d="M1072 1438 c-8 -8 -12 -45 -12 -100 l0 -88 -88 0 c-55 0 -92 -4 -100
-12 -16 -16 -16 -210 0 -226 8 -8 45 -12 100 -12 l88 0 0 -88 c0 -55 4 -92 12
-100 8 -8 48 -12 115 -12 123 0 123 0 123 119 l0 81 81 0 c119 0 119 0 119
125 0 125 0 125 -119 125 l-81 0 0 81 c0 119 0 119 -123 119 -67 0 -107 -4
-115 -12z m160 -165 l3 -98 98 -3 97 -3 0 -44 0 -44 -97 -3 -98 -3 -3 -97 -3
-98 -44 0 -45 0 0 84 c0 46 -3 91 -6 100 -5 13 -24 16 -100 16 l-94 0 0 45 0
45 88 0 c55 0 92 4 100 12 8 8 12 45 12 100 l0 88 45 0 44 0 3 -97z"/>
</g>
</svg>
