<svg xmlns="http://www.w3.org/2000/svg" xmlns:xlink="http://www.w3.org/1999/xlink" xml:space="preserve" style="shape-rendering:geometricPrecision;text-rendering:geometricPrecision;image-rendering:optimizeQuality;" viewBox="0 0 6827 8533.75" x="0px" y="0px" fill-rule="evenodd" clip-rule="evenodd"><defs><style type="text/css">
   
    .fil2 {fill:none}
    .fil1 {fill:black}
    .fil0 {fill:black;fill-rule:nonzero}
   
  </style></defs><g><g><polygon class="fil0" points="2714,5700 1127,4113 1042,4028 1157,3991 1609,3848 1651,3835 1683,3866 2961,5145 2993,5176 2979,5219 2836,5671 2800,5786 "/><path class="fil0" d="M1602 5707l-482 -482 0 0c-29,-29 -29,-75 0,-104l0 0 559 -559 0 0c29,-29 75,-29 104,0l0 0 482 482 0 0c29,29 29,75 0,104l0 0 -559 559 0 0c-29,29 -75,29 -104,0l0 0z"/><path class="fil0" d="M1846 5952c29,29 75,29 104,0 29,-29 29,-75 0,-104l-971 -971c-29,-29 -75,-29 -104,0 -29,29 -29,75 0,104l971 971z"/><line class="fil1" x1="5235" y1="1592" x2="5235" y2="1592"/><path class="fil1" d="M3926 2190l449 449 -104 104 -449 -449 104 -104zm1173 -631l64 -51 224 -181 51 -41 535 -432 -432 535 -41 51 -146 181c88,134 116,306 89,487 -33,216 -145,449 -327,652l-3 3 -2227 2227 -1040 -1040c365,-365 701,-706 1037,-1047 385,-390 770,-780 1123,-1133 204,-204 446,-332 671,-378 200,-40 388,-16 530,79l-44 35 -64 51 0 0 0 0zm-1704 1162l449 449 -104 104 -449 -449 104 -104zm-531 531l449 449 -104 104 -449 -449 104 -104zm-531 531l449 449 -104 104 -449 -449 104 -104z"/></g></g><rect class="fil2" width="6827" height="6827"/><text x="0" y="6842" fill="#000000" font-size="5px" font-weight="bold" font-family="'Helvetica Neue', Helvetica, Arial-Unicode, Arial, Sans-serif">Created by IYIKON</text><text x="0" y="6847" fill="#000000" font-size="5px" font-weight="bold" font-family="'Helvetica Neue', Helvetica, Arial-Unicode, Arial, Sans-serif">from the Noun Project</text></svg>