<?xml version="1.0" standalone="no"?>
<!DOCTYPE svg PUBLIC "-//W3C//DTD SVG 20010904//EN"
 "http://www.w3.org/TR/2001/REC-SVG-20010904/DTD/svg10.dtd">
<svg version="1.0" xmlns="http://www.w3.org/2000/svg"
 width="512.000000pt" height="512.000000pt" viewBox="0 0 512.000000 512.000000"
 preserveAspectRatio="xMidYMid meet">
<metadata>
Created by potrace 1.16, written by Peter Selinger 2001-2019
</metadata>
<g transform="translate(0.000000,512.000000) scale(0.100000,-0.100000)"
fill="#000000" stroke="none">
<path d="M3439 5106 c-277 -42 -560 -195 -742 -399 -72 -81 -2137 -2609 -2208
-2702 -159 -211 -237 -435 -247 -711 -24 -714 536 -1294 1252 -1294 343 0 656
131 892 372 75 76 2109 2558 2249 2743 101 135 180 305 221 480 15 64 19 119
19 270 0 204 -15 292 -71 443 -150 398 -498 694 -924 787 -101 22 -332 28
-441 11z m414 -400 c270 -80 475 -251 597 -499 76 -155 93 -230 93 -417 0
-140 -2 -164 -27 -245 -33 -111 -74 -200 -127 -277 -32 -48 -389 -490 -837
-1040 l-55 -66 -90 71 c-50 40 -384 303 -742 585 -357 282 -650 517 -650 522
0 12 844 1045 909 1114 132 136 330 241 523 276 26 5 109 7 183 5 109 -2 152
-8 223 -29z m-1309 -3468 c8 -12 12 -27 8 -34 -17 -31 -262 -323 -311 -371
-110 -109 -273 -195 -436 -230 -105 -23 -280 -21 -389 6 -153 37 -320 126
-428 229 -70 66 -45 84 97 70 123 -12 395 -4 533 17 288 42 566 140 802 283
47 29 90 52 97 52 6 0 19 -10 27 -22z"/>
</g>
</svg>
