<svg xmlns="http://www.w3.org/2000/svg" xmlns:xlink="http://www.w3.org/1999/xlink" xml:space="preserve" style="shape-rendering:geometricPrecision;text-rendering:geometricPrecision;image-rendering:optimizeQuality;" viewBox="0 0 6827 8533.75" x="0px" y="0px" fill-rule="evenodd" clip-rule="evenodd"><defs><style type="text/css">
   
    .fil2 {fill:none}
    .fil1 {fill:black}
    .fil0 {fill:black;fill-rule:nonzero}
   
  </style></defs><g><g><path class="fil0" d="M2847 4296c-46,0 -83,37 -83,83 0,46 37,83 83,83l2510 0c46,0 83,-37 83,-83 0,-46 -37,-83 -83,-83l-2510 0z"/><path class="fil0" d="M1656 1394l454 -262 41 71 -41 -72c40,-23 90,-9 113,30 1,2 2,3 3,5l254 441 -602 348 -257 -445 71 -41 -72 41c-23,-39 -9,-90 30,-113 2,-1 3,-2 5,-3zm905 354l743 1287 -71 41 72 -41c23,40 9,90 -30,113 -2,1 -3,2 -5,3l-454 262 -41 -71 41 72c-39,23 -90,9 -113,-30 -1,-2 -2,-3 -3,-5l-740 -1282 602 -348z"/><path class="fil0" d="M2883 3521c-39,23 -53,73 -30,112 23,39 73,53 112,30l459 -265c39,-23 53,-73 30,-112 -23,-39 -73,-53 -112,-30l-459 265z"/><path class="fil0" d="M1762 894c-23,-39 -73,-53 -113,-30 -39,23 -53,73 -30,113l168 292c23,39 73,53 113,30 39,-23 53,-73 30,-113l-168 -292z"/><path class="fil1" d="M4050 5177c96,-72 170,-150 249,-250 123,-156 212,-336 264,-528l16 -60 279 75 -16 60c-62,230 -169,445 -316,632 -112,142 -246,267 -396,368l-64 -241 -15 -56z"/><path class="fil1" d="M2207 5504c-301,-190 -537,-468 -677,-795 -156,-363 -184,-764 -82,-1146 55,-207 156,-404 282,-577 128,-177 289,-340 469,-464l51 -35 163 238 -51 35c-153,105 -290,244 -398,395 -105,145 -190,310 -237,483 -85,319 -62,654 68,958 105,245 275,457 490,613l-79 295z"/><polygon class="fil0" points="2419,5187 3925,5187 3989,5187 4005,5249 4170,5870 4198,5973 4091,5973 2254,5973 2146,5973 2174,5870 2339,5249 2356,5187 "/></g></g><rect class="fil2" width="6827" height="6827"/><text x="0" y="6842" fill="#000000" font-size="5px" font-weight="bold" font-family="'Helvetica Neue', Helvetica, Arial-Unicode, Arial, Sans-serif">Created by IYIKON</text><text x="0" y="6847" fill="#000000" font-size="5px" font-weight="bold" font-family="'Helvetica Neue', Helvetica, Arial-Unicode, Arial, Sans-serif">from the Noun Project</text></svg>