<?xml version="1.0" standalone="no"?>
<!DOCTYPE svg PUBLIC "-//W3C//DTD SVG 20010904//EN"
 "http://www.w3.org/TR/2001/REC-SVG-20010904/DTD/svg10.dtd">
<svg version="1.0" xmlns="http://www.w3.org/2000/svg"
 width="512.000000pt" height="512.000000pt" viewBox="0 0 512.000000 512.000000"
 preserveAspectRatio="xMidYMid meet">

<g transform="translate(0.000000,512.000000) scale(0.100000,-0.100000)"
fill="#000000" stroke="none">
<path d="M3689 4906 c-2 -2 -38 -7 -79 -10 -198 -18 -473 -105 -659 -210 -112
-64 -175 -110 -259 -190 -215 -206 -282 -436 -187 -643 140 -307 586 -484
1135 -452 957 56 1608 728 1163 1199 -194 206 -504 310 -923 310 -102 0 -189
-2 -191 -4z"/>
<path d="M870 4250 c-291 -30 -513 -119 -655 -264 -184 -188 -192 -435 -22
-686 72 -107 239 -255 361 -322 210 -116 343 -171 520 -218 61 -16 110 -32
109 -37 -1 -4 -14 -37 -29 -73 -48 -115 -45 -321 7 -481 67 -206 218 -437 412
-631 522 -522 1241 -698 1554 -380 92 93 133 206 133 364 0 319 -185 660 -536
983 -130 120 -262 214 -406 289 l-87 45 54 36 c30 20 79 63 110 97 203 219
173 511 -79 777 -185 194 -428 330 -767 430 -219 63 -482 91 -679 71z"/>
<path d="M4912 3145 c-192 -50 -389 -136 -537 -235 -44 -29 -123 -96 -176
-149 -82 -82 -103 -110 -142 -191 -33 -66 -50 -117 -58 -168 -41 -276 159
-518 530 -642 93 -31 340 -73 400 -68 l35 3 33 102 c37 115 62 222 93 398 17
97 21 159 21 330 0 228 -8 322 -43 518 -26 147 -13 139 -156 102z"/>
<path d="M660 1591 c-134 -25 -258 -61 -383 -110 l-27 -11 36 -72 c52 -105
163 -280 239 -378 36 -47 83 -108 104 -135 50 -66 211 -218 332 -315 100 -80
260 -190 275 -190 5 0 35 26 65 57 357 371 427 751 182 990 -73 71 -208 138
-333 163 -124 26 -353 26 -490 1z"/>
<path d="M4063 1279 c-199 -15 -382 -60 -539 -134 -120 -56 -205 -116 -281
-200 -205 -223 -187 -503 48 -749 l66 -70 64 24 c89 32 370 168 452 218 37 23
70 42 72 42 17 0 178 124 281 217 132 118 236 226 330 343 63 78 177 241 172
245 -7 6 -161 35 -258 49 -136 20 -279 25 -407 15z"/>
</g>
</svg>
