<svg xmlns="http://www.w3.org/2000/svg" xmlns:xlink="http://www.w3.org/1999/xlink" xml:space="preserve" style="shape-rendering:geometricPrecision;text-rendering:geometricPrecision;image-rendering:optimizeQuality;" viewBox="0 0 6827 8533.75" x="0px" y="0px" fill-rule="evenodd" clip-rule="evenodd"><defs><style type="text/css">
   
    .fil1 {fill:none}
    .fil0 {fill:black;fill-rule:nonzero}
   
  </style></defs><g><g><path class="fil0" d="M5029 941l0 -1 0 -1 0 -1 0 -1 0 -1 0 -1 0 -1 0 -1 0 -1 0 -1 0 -1 0 -1 0 -1 0 -1 0 -1 0 0 0 -2 0 0 0 -2 0 0 0 -2 0 0 -1 -2 0 0 0 -2 0 -1 0 -1 0 -1 0 -1 0 -1 -1 -1 0 0 -1 -2 0 0 -1 -1 0 0 -1 -1 0 0 -1 -1 0 0 -1 -1 0 0 -1 -1 0 0 -1 -1 0 0 -1 -1 0 0 -1 -1 0 -1 -1 -1 0 0 -1 -1 0 0 -1 -1 0 0 -1 -1 0 0 -1 -1 0 0 -1 -1 0 0 -1 -1 -1 -1 -1 -1 -1 -1 -1 -1 -1 -1 -1 -1 0 0 -1 -1 -1 -1 0 0 -1 -1 -1 0 -1 -1 -1 0 -1 -1 -1 0 -1 -1 0 0 -1 -1 -1 0 -1 -1 -1 -1 -1 0 -1 -1 -1 0 -1 0 -1 -1 -1 0 -1 0 -1 0 -1 -1 -1 0 -1 0 -1 0 -1 0 -1 0 -1 0 -1 0 -1 0 -1 0 -1 0 -1 0 -1 0 -1 0 -1 0 -1 0 -1 0 -1 0 -1 0 -1 0 -1 0 -1 0 -1 0 -1 0 -1 0 -1 0 -1 0 -1 0 -1 0 -1 0 -1 0 -1 0 -1 0 -1 0 0 0 -1568 -8c-28,0 -52,14 -66,35 -10,13 -16,30 -16,49 0,91 -37,173 -96,232 -59,59 -141,96 -232,96 -91,0 -173,-37 -232,-96 -59,-59 -96,-141 -96,-232 0,-44 -36,-80 -80,-80 -44,0 -80,36 -80,80 0,135 55,257 143,345 75,75 174,126 285,139l0 329c0,44 36,80 80,80 44,0 80,-36 80,-80l0 -336c95,-20 180,-67 246,-133 71,-71 121,-165 137,-269l1417 8 38 4356 0 0 0 516c0,44 36,80 80,80 44,0 80,-36 80,-80l0 -516 0 0 0 -1 0 0 -38 -4435z"/><path class="fil0" d="M2307 1671l504 0 0 80c0,99 81,180 180,180 99,0 180,-81 180,-180l0 -80 504 0c151,0 288,62 387,161 99,99 161,236 161,387l0 2342c0,151 -62,288 -161,387 -99,99 -236,161 -387,161l-1368 0c-151,0 -288,-62 -387,-161 -99,-99 -161,-236 -161,-387l0 -2342c0,-151 62,-288 161,-387 99,-99 236,-161 387,-161z"/><path class="fil0" d="M2691 4948l600 0c44,0 80,36 80,80l0 250c0,44 -36,80 -80,80l-120 0 0 -80c0,-99 -81,-180 -180,-180 -99,0 -180,81 -180,180l0 80 -120 0c-44,0 -80,-36 -80,-80l0 -250c0,-44 36,-80 80,-80z"/><path class="fil0" d="M3070 5278c0,-44 -36,-80 -80,-80 -44,0 -80,36 -80,80l0 474c0,44 36,80 80,80 44,0 80,-36 80,-80l0 -474z"/></g></g><rect class="fil1" width="6827" height="6827"/><text x="0" y="6842" fill="#000000" font-size="5px" font-weight="bold" font-family="'Helvetica Neue', Helvetica, Arial-Unicode, Arial, Sans-serif">Created by IYIKON</text><text x="0" y="6847" fill="#000000" font-size="5px" font-weight="bold" font-family="'Helvetica Neue', Helvetica, Arial-Unicode, Arial, Sans-serif">from the Noun Project</text></svg>